<svg width="446" height="278" viewBox="0 0 446 278" fill="none" xmlns="http://www.w3.org/2000/svg">
<g filter="url(#filter0_d)">
<rect x="56" y="36.4976" width="326" height="157.295" rx="25" fill="white"/>
</g>
<path d="M328.187 77.7991L326.029 102.009C323.153 103.328 318.958 104.766 313.085 104.766C304.695 104.766 301.339 100.691 301.939 94.3388L303.377 77.6792C304.575 77.4395 305.654 77.4395 306.613 77.4395C307.572 77.4395 308.77 77.4395 309.729 77.6792L308.411 92.4211C308.051 96.7358 308.89 99.1329 314.284 99.1329C316.321 99.1329 318.119 98.7733 319.797 98.1741L321.595 77.7991C322.673 77.5594 323.872 77.5594 324.831 77.5594C326.029 77.5594 327.108 77.5594 328.187 77.7991Z" fill="#FF8300"/>
<path d="M329.024 104.047L331.301 77.799C332.38 77.5593 333.458 77.5593 334.537 77.5593C335.496 77.5593 336.695 77.5593 337.653 77.799L335.376 104.047C334.297 104.286 333.219 104.286 332.14 104.286C331.181 104.286 330.103 104.286 329.024 104.047ZM331.781 73.1247L337.414 66.6526C339.571 67.4916 340.889 69.1696 341.249 71.4468L333.578 75.4019C332.62 74.9225 332.02 74.2034 331.781 73.1247Z" fill="#FF8300"/>
<path d="M291.988 98.0541L293.187 83.9115C291.629 83.0725 289.831 82.5931 288.033 82.5931C283.239 82.5931 279.404 85.8291 279.044 90.9828C278.565 96.1365 281.681 99.1328 286.475 99.1328C288.632 99.2527 290.43 98.7733 291.988 98.0541ZM299.899 80.9152L297.142 111.837C296.063 112.077 294.985 112.077 293.906 112.077C292.947 112.077 291.749 112.077 290.79 111.837L291.509 103.927C289.831 104.646 288.033 104.886 285.876 104.886C277.846 104.886 271.973 100.211 272.692 91.3424C273.531 82.3534 280.722 76.96 288.632 76.96C293.546 76.96 297.621 78.7578 299.899 80.9152Z" fill="#FF8300"/>
<path d="M262.744 95.6571L263.823 83.9115C262.265 83.0725 260.467 82.5931 258.669 82.5931C253.875 82.5931 250.04 85.8291 249.68 90.9828C249.201 96.1365 252.437 99.1328 256.751 99.1328C260.467 99.2527 262.744 95.6571 262.744 95.6571ZM270.415 80.9151L268.257 104.406C267.179 104.646 264.182 104.646 263.104 104.406L262.744 101.77C262.744 101.77 259.987 104.766 254.954 104.766C248.362 104.766 242.369 100.092 243.088 91.2225C243.927 82.2335 251.118 76.8401 259.028 76.8401C264.062 76.96 268.137 78.7578 270.415 80.9151Z" fill="#FF8300"/>
<path d="M244.529 77.7987C244.409 79.8362 243.57 81.7539 242.372 83.1921C241.053 82.8325 239.735 82.7127 238.417 82.7127C236.379 82.7127 234.581 83.0722 233.263 83.7914L231.465 104.046C230.387 104.286 229.308 104.286 228.229 104.286C227.151 104.286 226.072 104.286 224.993 104.046L227.031 80.795C229.188 78.9972 233.503 77.0796 238.656 77.0796C240.934 76.9597 242.851 77.1994 244.529 77.7987Z" fill="#2C3D46"/>
<path d="M96.8696 90.9828C97.7085 82.5931 104.3 76.96 112.331 76.96C116.286 76.96 119.522 78.5181 121.08 79.9563C120.481 81.7541 119.042 83.4321 117.245 84.5108C116.046 83.4321 114.368 82.4733 111.851 82.4733C106.578 82.4733 103.821 86.4284 103.342 90.9828C102.982 95.5372 105.02 99.4924 110.413 99.4924C113.529 99.4924 115.327 98.174 116.525 97.2152C118.084 98.0541 119.162 99.4924 119.522 101.53C117.604 103.208 114.128 104.886 109.814 104.886C101.424 104.886 96.1504 99.7321 96.8696 90.9828Z" fill="#2C3D46"/>
<path d="M141.816 90.9828C142.295 85.949 139.658 82.4733 134.864 82.4733C130.07 82.4733 126.834 85.949 126.355 90.9828C125.875 96.0166 128.512 99.3725 133.306 99.3725C138.22 99.3725 141.456 95.8968 141.816 90.9828ZM120.002 90.9828C120.722 82.8328 127.313 76.96 135.463 76.96C143.733 76.96 149.007 82.713 148.288 90.9828C147.569 99.1328 140.977 104.886 132.827 104.886C124.557 104.886 119.283 99.1328 120.002 90.9828Z" fill="#2C3D46"/>
<path d="M193.831 87.3872L192.393 104.047C191.314 104.286 190.236 104.286 189.157 104.286C188.078 104.286 187 104.286 185.921 104.047L187.239 89.185C187.599 85.4696 186.161 82.713 181.846 82.713C179.329 82.713 177.411 83.7916 175.973 84.8703C176.093 85.7093 176.093 86.5483 176.093 87.3872L174.655 104.047C173.576 104.286 172.498 104.286 171.419 104.286C170.34 104.286 169.261 104.286 168.183 104.047L169.501 89.185C169.861 85.4696 168.423 82.713 164.108 82.713C162.07 82.713 160.033 83.3122 158.475 84.1512L156.677 104.047C155.598 104.286 154.52 104.286 153.441 104.286C152.482 104.286 151.403 104.286 150.325 104.047L152.362 81.1549C154.639 79.3571 159.673 76.96 165.306 76.96C169.142 76.96 172.018 78.1586 173.816 79.9563C176.213 78.2784 179.569 76.96 183.164 76.96C190.835 76.96 194.311 81.6343 193.831 87.3872Z" fill="#2C3D46"/>
<path d="M216.484 90.863C216.964 85.7093 213.847 82.713 208.933 82.713C207.016 82.713 205.338 83.0725 203.54 84.0313L202.222 98.2938C203.66 99.013 205.338 99.3725 207.375 99.3725C212.409 99.2527 216.125 96.1365 216.484 90.863ZM222.956 90.7431C222.117 99.7321 215.046 104.886 207.615 104.886C205.338 104.886 203.54 104.646 201.982 104.167L201.383 111.478C200.304 111.717 199.225 111.717 198.147 111.717C197.068 111.717 196.109 111.717 194.911 111.478L197.547 81.035C200.304 78.8777 204.739 76.96 209.772 76.96C218.042 76.96 223.795 81.6343 222.956 90.7431Z" fill="#2C3D46"/>
<path d="M153.321 148.152H96.75V152.827H153.321V148.152Z" fill="#EFB536"/>
<path d="M153.321 120.107H96.75V124.781H153.321V120.107Z" fill="#1F3171"/>
<path d="M119.404 130.055L113.532 142.999H109.696L106.82 132.691C106.7 132.092 106.46 131.852 105.981 131.493C105.142 131.013 103.704 130.654 102.385 130.414L102.505 130.055H108.618C109.457 130.055 110.056 130.534 110.296 131.373L111.854 138.924L115.569 130.055H119.404ZM134.266 138.804C134.266 135.328 129.232 135.208 129.232 133.65C129.232 133.171 129.712 132.691 130.79 132.572C131.27 132.452 132.708 132.452 134.386 133.171L134.985 130.414C134.146 130.175 132.948 129.815 131.629 129.815C128.034 129.815 125.517 131.613 125.517 134.13C125.517 136.047 127.315 137.006 128.633 137.605C130.071 138.205 130.551 138.684 130.551 139.163C130.551 140.002 129.472 140.362 128.393 140.482C126.596 140.482 125.517 140.002 124.678 139.643L124.079 142.519C124.918 142.879 126.476 143.238 128.034 143.238C131.869 143.238 134.266 141.441 134.266 138.804ZM143.735 142.999H147.09L144.214 130.055H141.098C140.379 130.055 139.779 130.414 139.54 131.013L134.146 142.999H137.982L138.701 141.081H143.375L143.735 142.999ZM139.66 138.444L141.577 133.53L142.656 138.444H139.66ZM124.558 130.055L121.562 142.999H117.966L120.962 130.055H124.558Z" fill="#1F3171"/>
<path d="M181.247 153.786V151.508C181.247 150.669 180.647 150.07 179.689 150.07C179.209 150.07 178.61 150.19 178.25 150.669C178.011 150.31 177.531 150.07 176.932 150.07C176.453 150.07 176.093 150.19 175.734 150.669V150.19H174.895V153.905H175.853V151.748C175.853 151.149 176.213 150.789 176.812 150.789C177.411 150.789 177.651 151.149 177.651 151.748V153.786H178.49V151.748C178.49 151.149 178.85 150.789 179.449 150.789C180.048 150.789 180.288 151.149 180.288 151.748V153.786H181.247ZM194.071 150.07H192.633V148.991H191.794V150.07H190.955V150.789H191.794V152.467C191.794 153.306 192.153 153.786 193.112 153.786C193.472 153.786 193.951 153.666 194.191 153.546L193.951 152.827C193.711 152.947 193.472 153.066 193.232 153.066C192.753 153.066 192.633 152.827 192.633 152.467V150.789H194.071V150.07ZM201.382 149.95C200.903 149.95 200.543 150.19 200.303 150.43V149.95H199.464V153.666H200.303V151.628C200.303 151.029 200.543 150.669 201.142 150.669C201.262 150.669 201.502 150.669 201.622 150.789L201.861 150.07C201.742 149.95 201.502 149.95 201.382 149.95ZM190.236 150.31C189.876 150.07 189.277 149.95 188.678 149.95C187.719 149.95 187 150.43 187 151.149C187 151.748 187.479 152.108 188.318 152.227H188.678C189.157 152.347 189.397 152.347 189.397 152.587C189.397 152.827 189.037 153.066 188.558 153.066C187.959 153.066 187.479 152.947 187.239 152.707L186.88 153.306C187.359 153.666 187.959 153.786 188.558 153.786C189.636 153.786 190.356 153.306 190.356 152.587C190.356 151.988 189.876 151.628 189.037 151.508H188.678C188.318 151.508 187.959 151.388 187.959 151.149C187.959 150.909 188.198 150.669 188.678 150.669C189.157 150.669 189.636 150.789 189.876 151.029L190.236 150.31ZM213.247 149.95C212.768 149.95 212.409 150.19 212.169 150.43V149.95H211.33V153.666H212.169V151.628C212.169 151.029 212.409 150.669 213.008 150.669C213.128 150.669 213.367 150.669 213.487 150.789L213.727 150.07C213.727 149.95 213.487 149.95 213.247 149.95ZM202.221 151.868C202.221 152.947 203.06 153.786 204.378 153.786C204.978 153.786 205.337 153.666 205.817 153.306L205.457 152.707C205.097 152.947 204.738 153.066 204.378 153.066C203.659 153.066 203.18 152.587 203.18 151.868C203.18 151.149 203.659 150.669 204.378 150.669C204.738 150.669 205.097 150.789 205.457 151.029L205.817 150.43C205.337 150.07 204.978 149.95 204.378 149.95C203.06 149.95 202.221 150.789 202.221 151.868ZM210.251 151.868V150.07H209.412V150.55C209.172 150.19 208.693 150.07 208.214 150.07C207.135 150.07 206.296 150.909 206.296 151.988C206.296 153.066 207.135 153.905 208.214 153.905C208.813 153.905 209.172 153.666 209.412 153.426V153.905H210.251V151.868ZM207.015 151.868C207.015 151.269 207.495 150.669 208.214 150.669C208.933 150.669 209.412 151.149 209.412 151.868C209.412 152.587 208.933 153.066 208.214 153.066C207.495 153.066 207.015 152.587 207.015 151.868ZM196.708 149.95C195.509 149.95 194.79 150.789 194.79 151.868C194.79 153.066 195.629 153.786 196.828 153.786C197.427 153.786 198.026 153.666 198.386 153.306L198.026 152.707C197.667 152.947 197.307 153.066 196.828 153.066C196.228 153.066 195.749 152.827 195.629 152.108H198.506C198.506 151.988 198.506 151.868 198.506 151.748C198.506 150.789 197.786 149.95 196.708 149.95ZM196.708 150.669C197.307 150.669 197.667 151.029 197.667 151.508H195.629C195.749 151.029 196.109 150.669 196.708 150.669ZM218.161 151.868V148.512H217.322V150.55C217.083 150.19 216.603 150.07 216.124 150.07C215.045 150.07 214.206 150.909 214.206 151.988C214.206 153.066 215.045 153.905 216.124 153.905C216.723 153.905 217.083 153.666 217.322 153.426V153.905H218.161V151.868ZM215.045 151.868C215.045 151.269 215.525 150.669 216.244 150.669C216.963 150.669 217.442 151.149 217.442 151.868C217.442 152.587 216.963 153.066 216.244 153.066C215.525 153.066 215.045 152.587 215.045 151.868ZM186.041 151.868V150.07H185.202V150.55C184.962 150.19 184.483 150.07 184.003 150.07C182.925 150.07 182.086 150.909 182.086 151.988C182.086 153.066 182.925 153.905 184.003 153.905C184.603 153.905 184.962 153.666 185.202 153.426V153.905H186.041V151.868ZM182.805 151.868C182.805 151.269 183.284 150.669 184.003 150.669C184.722 150.669 185.202 151.149 185.202 151.868C185.202 152.587 184.722 153.066 184.003 153.066C183.284 153.066 182.805 152.587 182.805 151.868ZM219.6 153.186H219.72C219.72 153.186 219.839 153.186 219.839 153.306L219.959 153.426V153.546V153.666C219.959 153.666 219.959 153.786 219.839 153.786L219.72 153.905H219.6H219.48C219.48 153.905 219.36 153.905 219.36 153.786L219.24 153.666V153.546V153.426C219.24 153.426 219.24 153.306 219.36 153.306C219.36 153.306 219.48 153.306 219.48 153.186H219.6ZM219.6 153.905C219.72 153.905 219.72 153.905 219.6 153.905C219.72 153.905 219.839 153.905 219.839 153.786C219.839 153.786 219.839 153.786 219.959 153.666V153.546V153.426C219.959 153.426 219.959 153.306 219.839 153.306C219.839 153.306 219.839 153.306 219.72 153.186H219.6H219.48C219.48 153.186 219.36 153.186 219.36 153.306C219.36 153.306 219.36 153.306 219.24 153.426V153.546V153.666C219.24 153.666 219.24 153.786 219.36 153.786C219.36 153.786 219.48 153.786 219.48 153.905C219.6 153.905 219.6 153.905 219.6 153.905ZM219.72 153.426C219.839 153.426 219.839 153.546 219.839 153.546C219.839 153.546 219.839 153.546 219.839 153.666C219.839 153.666 219.839 153.666 219.72 153.666L219.839 153.786H219.72L219.6 153.666V153.786H219.48V153.426H219.72ZM219.6 153.426C219.72 153.546 219.72 153.546 219.72 153.546C219.72 153.426 219.72 153.426 219.6 153.426Z" fill="#1D1D1B"/>
<path d="M202.939 122.025H189.995V143.838H202.939V122.025Z" fill="#D9632C"/>
<path d="M190.835 132.931C190.835 128.497 192.992 124.541 196.468 122.025C193.951 120.227 190.715 119.028 187.239 119.028C179.089 119.028 172.377 125.261 172.377 132.931C172.377 140.602 178.969 146.834 187.239 146.834C190.715 146.834 193.951 145.755 196.468 143.838C192.992 141.321 190.835 137.366 190.835 132.931Z" fill="#CC2D27"/>
<path d="M219.121 141.561V141.081H219.361V140.961H218.881V141.081H219.121V141.561ZM220.08 141.561V140.961H219.96L219.84 141.321L219.72 140.961H219.6V141.441H219.72V141.081L219.84 141.441H219.96L220.08 141.081V141.561Z" fill="#1D1D1B"/>
<path d="M220.561 132.931C220.561 140.602 213.969 146.834 205.699 146.834C202.223 146.834 198.987 145.755 196.47 143.838C199.946 141.321 202.103 137.366 202.103 132.931C202.103 128.497 199.826 124.541 196.47 122.025C198.987 120.227 202.223 119.028 205.699 119.028C213.849 119.028 220.561 125.261 220.561 132.931Z" fill="#E9A034"/>
<path d="M284.679 152.947H243.929C241.771 152.947 239.974 151.149 239.974 148.992V124.062C239.974 121.905 241.771 120.107 243.929 120.107H284.679C286.836 120.107 288.634 121.905 288.634 124.062V148.872C288.634 151.149 286.836 152.947 284.679 152.947Z" fill="#D4D5D7"/>
<path d="M250.763 131.972H245.25C244.651 131.972 244.051 131.493 244.051 130.774V125.38C244.051 124.781 244.531 124.182 245.25 124.182H250.763C251.362 124.182 251.962 124.661 251.962 125.38V130.774C251.962 131.493 251.482 131.972 250.763 131.972Z" fill="#586069"/>
<mask id="mask0" style="mask-type:alpha" maskUnits="userSpaceOnUse" x="239" y="120" width="50" height="33">
<path d="M284.679 152.947H243.929C241.771 152.947 239.974 151.149 239.974 148.992V124.062C239.974 121.905 241.771 120.107 243.929 120.107H284.679C286.836 120.107 288.634 121.905 288.634 124.062V148.872C288.634 151.149 286.836 152.947 284.679 152.947Z" fill="#D4D5D7"/>
</mask>
<g mask="url(#mask0)">
<path d="M258.314 130.654C259.033 131.733 260.351 132.332 261.55 132.332C262.029 132.332 262.629 132.212 263.108 132.092L255.677 136.647C253.879 137.726 253.4 140.003 254.598 141.681C255.318 142.759 256.516 143.239 257.834 143.239C258.554 143.239 259.273 142.999 259.992 142.64L288.876 124.901V119.388C288.876 118.309 287.678 116.991 286.12 116.991H273.775L259.632 125.74C257.834 126.699 257.235 128.976 258.314 130.654Z" fill="#0055B8"/>
<path d="M288.753 124.901L262.865 140.842C261.067 141.92 260.587 144.197 261.786 145.875C262.505 146.954 263.704 147.433 265.022 147.433C265.741 147.433 266.46 147.194 267.179 146.834L269.816 145.276L269.696 145.396C267.898 146.475 267.419 148.752 268.618 150.43C269.337 151.508 270.655 152.108 271.854 152.108C272.573 152.108 273.292 151.868 274.011 151.508L276.648 149.83C274.85 150.909 274.37 153.186 275.569 154.864C275.929 155.344 276.408 155.823 277.007 156.063H280.603H285.996C287.554 156.063 288.873 154.864 288.873 153.426V146.714V144.557V129.216L288.753 124.901Z" fill="#D90032"/>
<path d="M269.936 131.014C269.936 131.014 269.217 125.381 271.135 124.781C273.052 124.182 274.85 126.699 276.049 128.137C276.049 128.137 284.918 124.781 286.116 126.699C287.315 128.737 281.442 134.37 280.843 134.849C280.363 135.329 284.199 147.194 281.921 148.153C279.644 149.112 274.251 141.441 274.251 141.441C274.251 141.441 269.696 146.595 268.138 145.876C267.299 145.516 267.899 138.205 267.899 138.205C267.899 138.205 264.543 137.366 264.183 136.287C263.584 134.01 269.577 131.134 269.936 131.014Z" fill="white"/>
</g>
<path d="M323.511 135.448H307.93V125.98C307.93 122.744 310.687 120.107 313.923 120.107H323.511V135.448ZM310.447 133.051H320.994V122.624H313.923C312.005 122.624 310.447 124.182 310.447 126.1V133.051Z" fill="#1D1D1B"/>
<path d="M317.88 125.62H313.565V129.815H317.88V125.62Z" fill="#1D1D1B"/>
<path d="M341.251 135.448H325.67V120.107H335.258C338.614 120.107 341.251 122.744 341.251 125.98V135.448ZM328.187 133.051H338.734V126.1C338.734 124.182 337.176 122.624 335.258 122.624H328.187V133.051Z" fill="#1D1D1B"/>
<path d="M335.615 125.62H331.3V129.815H335.615V125.62Z" fill="#1D1D1B"/>
<path d="M323.515 143.598H320.998V140.002H313.687V137.485H323.515V143.598Z" fill="#1D1D1B"/>
<path d="M323.512 152.946H319.796V150.429H320.995V147.193H323.512V152.946Z" fill="#1D1D1B"/>
<path d="M317.401 152.946H314.765C310.21 152.946 307.933 150.789 307.933 146.234H310.45C310.45 149.35 311.529 150.429 314.765 150.429H317.401V152.946Z" fill="#1D1D1B"/>
<path d="M310.45 138.804H307.933V143.478H310.45V138.804Z" fill="#1D1D1B"/>
<path d="M317.883 143.118H313.568V147.313H317.883V143.118Z" fill="#1D1D1B"/>
<path d="M335.262 152.946H325.673V137.485H341.254V146.954C341.254 150.309 338.498 152.946 335.262 152.946ZM328.19 150.429H335.262C337.179 150.429 338.737 148.871 338.737 146.954V140.002H328.19V150.429Z" fill="#1D1D1B"/>
<path d="M335.618 143.118H331.304V147.313H335.618V143.118Z" fill="#1D1D1B"/>
<defs>
<filter id="filter0_d" x="0" y="0.497559" width="446" height="277.295" filterUnits="userSpaceOnUse" color-interpolation-filters="sRGB">
<feFlood flood-opacity="0" result="BackgroundImageFix"/>
<feColorMatrix in="SourceAlpha" type="matrix" values="0 0 0 0 0 0 0 0 0 0 0 0 0 0 0 0 0 0 127 0" result="hardAlpha"/>
<feOffset dx="4" dy="24"/>
<feGaussianBlur stdDeviation="30"/>
<feComposite in2="hardAlpha" operator="out"/>
<feColorMatrix type="matrix" values="0 0 0 0 0.427451 0 0 0 0 0.552941 0 0 0 0 0.678431 0 0 0 0.25 0"/>
<feBlend mode="normal" in2="BackgroundImageFix" result="effect1_dropShadow"/>
<feBlend mode="normal" in="SourceGraphic" in2="effect1_dropShadow" result="shape"/>
</filter>
</defs>
</svg>
